PathFileType	4	(x/y/z)	S02_M20_T04
DataRate	CameraRate	NumFrames	NumMarkers	Units	OrigDataRate	OrigDataStartFrame	OrigNumFrames
240	240	5	51	mm	240	175	466
Frame#	Time	Sternum			R.Acromium			L.Acromium			Top.Head			R.ASIS			L.ASIS			R.PSIS			L.PSIS			R.Great.Tro			L.Great.Tro			R.Iliac.Crest			L.Iliac.Crest			V.Sacral			R.Thigh.Upper.Post			R.Thigh.Lower.Ant			R.Thigh.Lower.Post			R.Thigh.Upper.Ant			R.Knee.Lat			R.Knee.Med			R.Shank.Upper.Post			R.Shank.Lower.Ant			R.Shank.Lower.Post			R.Shank.Upper.Ant			R.Ankle.Lat			R.Ankle.Med			R.Heel.Upper			R.Heel.Med			R.Heel.Lat			R.Toe.Lat			R.Toe.Med			R.Toe.Tip			L.Thigh.Upper.Post			L.Thigh.Lower.Ant			L.Thigh.Lower.Post			L.Thigh.Upper.Ant			L.Knee.Lat			L.Knee.Med			L.Shank.Upper.Post			L.Shank.Lower.Ant			L.Shank.Lower.Post			L.Shank.Upper.Ant			L.Ankle.Lat			L.Ankle.Med			L.Heel.Upper			L.Heel.Med			L.Heel.Lat			L.Toe.Lat			L.Toe.Med			L.Toe.Tip			Cervical.Spine			Back			
		X1	Y1	Z1	X2	Y2	Z2	X3	Y3	Z3	X4	Y4	Z4	X5	Y5	Z5	X6	Y6	Z6	X7	Y7	Z7	X8	Y8	Z8	X9	Y9	Z9	X10	Y10	Z10	X11	Y11	Z11	X12	Y12	Z12	X13	Y13	Z13	X14	Y14	Z14	X15	Y15	Z15	X16	Y16	Z16	X17	Y17	Z17	X18	Y18	Z18	X19	Y19	Z19	X20	Y20	Z20	X21	Y21	Z21	X22	Y22	Z22	X23	Y23	Z23	X24	Y24	Z24	X25	Y25	Z25	X26	Y26	Z26	X27	Y27	Z27	X28	Y28	Z28	X29	Y29	Z29	X30	Y30	Z30	X31	Y31	Z31	X32	Y32	Z32	X33	Y33	Z33	X34	Y34	Z34	X35	Y35	Z35	X36	Y36	Z36	X37	Y37	Z37	X38	Y38	Z38	X39	Y39	Z39	X40	Y40	Z40	X41	Y41	Z41	X42	Y42	Z42	X43	Y43	Z43	X44	Y44	Z44	X45	Y45	Z45	X46	Y46	Z46	X47	Y47	Z47	X48	Y48	Z48	X49	Y49	Z49	X50	Y50	Z50	X51	Y51	Z51	

175	0.725	-565.86	1059.8	320.06	-682.37	1284.9	476.73	-669.66	1302.1	188.68	-644.84	1581.7	355.62	-572.06	891.51	412.62	-598.87	868.96	198.47	-798.87	920.66	382.91	-811.5	919.99	308.87	-612.71	793.22	511.21	-745.97	785.58	129.42	-668.62	940.07	482.54	-724.79	920.42	145.26	-828	870.01	344.94	-530.71	609.69	484.63	-456	561.58	434.5	-511.52	523.6	463.18	-479.84	645.94	454.63	-466.81	460.64	437.28	-491.25	446.01	299.8	-516.39	241.33	428.2	-435.24	171.75	398.73	-501.05	170.11	414.87	-444.8	239.51	417.21	-480.1	84.438	396.32	-472.14	97.031	312.76	-539.21	71.594	339.7	-524.26	39.963	312.84	-535.55	40.797	376.2	-374.39	40.793	419.19	-341.42	35.532	313.08	-294.75	65.815	367.57	-817.44	582.39	163.32	-763.34	487.18	147.19	-836.74	494.72	180.45	-750.83	581.01	134.26	-806.18	415.82	155.23	-782.66	397.5	288.71	-983.55	359.21	171.11	-987.18	242.39	173.94	-1043.6	313.74	188.19	-953	303.92	160.95	-1108.8	209.78	195.54	-1099.4	203.31	277.9	-1159.9	248.46	234.25	-1175.2	234.11	272.41	-1186.2	230.71	210.78	-1129.5	76.716	186.4	-1098.6	74.755	292.78	-1061	36.414	248.68	-758.74	1358.1	334.67	-828.86	1104.8	322.66
176	0.72917	-559.86	1060.6	320.78	-676.4	1285.4	477.44	-663.92	1302.7	189.5	-639.03	1582.3	356.79	-566.28	892.58	413.47	-592.66	869.27	199.35	-793.37	921.41	382.67	-805.64	920.44	308.6	-607.23	794.42	511.84	-739.12	785.17	129.86	-663.31	941.03	482.74	-718.31	920.73	145.52	-822.2	870.56	344.79	-525.41	610.23	485.29	-450.97	561.82	435.05	-506.56	524.06	463.85	-474.47	646.27	455.18	-462.36	460.64	437.78	-486.01	446.44	300.24	-514.05	241.79	428.56	-433.69	171.35	398.83	-499.51	170.42	415.11	-442.48	239.18	417.43	-479.66	84.533	396.35	-471.72	97.207	312.9	-539.02	71.785	339.8	-524.16	40.149	312.9	-535.41	40.971	376.29	-374.17	40.58	419.14	-341.24	35.07	312.91	-294.38	65.06	367.43	-809.01	581.4	162.96	-753.96	486.76	146.71	-827.45	493.51	179.86	-742.29	580.74	134.08	-796.37	415.22	154.42	-772.36	396.43	287.85	-973.88	360.42	170.57	-978.63	243.77	173.26	-1034.7	315.57	187.63	-944.4	304.85	160.19	-1100.4	212.6	194.72	-1090.9	205.7	277.33	-1150.2	252.58	233.75	-1165.8	238.66	271.93	-1177.2	235.59	210.47	-1125	79.64	186.23	-1093.4	76.793	292.25	-1057.6	35.936	247.9	-752.77	1358.7	335.55	-822.91	1105.4	323.1
177	0.73333	-553.94	1061.4	321.48	-670.5	1286.1	478.13	-658.23	1303.4	190.28	-633.23	1583	357.94	-560.56	893.68	414.32	-586.5	869.65	200.22	-787.9	922.18	382.47	-799.84	920.92	308.37	-601.83	795.58	512.49	-732.35	784.85	130.33	-658.07	942	482.97	-711.92	921.06	145.81	-816.46	871.13	344.65	-520.31	610.66	485.94	-446.12	561.93	435.6	-501.82	524.42	464.48	-469.25	646.49	455.76	-458.15	460.55	438.3	-481	446.79	300.67	-511.87	242.22	428.84	-432.27	170.95	398.95	-498.1	170.71	415.3	-440.33	238.84	417.67	-479.27	84.625	396.38	-471.35	97.378	313.03	-538.85	71.952	339.89	-524.07	40.312	312.96	-535.28	41.127	376.36	-373.99	40.415	419.1	-341.08	34.688	312.77	-294.06	64.411	367.31	-800.55	580.49	162.6	-744.53	486.43	146.22	-818.11	492.39	179.25	-733.71	580.56	133.9	-786.48	414.7	153.62	-761.99	395.46	287.02	-964.08	361.62	170.05	-970.17	245.27	172.66	-1025.5	317.39	187.13	-935.62	305.8	159.46	-1091.7	215.39	193.93	-1082.3	208.02	276.82	-1140.3	256.54	233.33	-1156.1	243.01	271.51	-1168	240.27	210.23	-1120.2	82.572	186.06	-1087.8	78.811	291.71	-1053.7	35.572	247.08	-746.86	1359.3	336.4	-817.02	1106.1	323.53
178	0.7375	-548.07	1062.3	322.17	-664.65	1286.7	478.81	-652.61	1304.1	191.03	-627.46	1583.7	359.07	-554.93	894.8	415.16	-580.4	870.09	201.08	-782.47	922.97	382.29	-794.1	921.43	308.17	-596.51	796.68	513.17	-725.66	784.62	130.85	-652.87	942.98	483.24	-705.63	921.41	146.11	-810.78	871.74	344.54	-515.39	611	486.57	-441.46	561.93	436.17	-497.32	524.68	465.07	-464.18	646.6	456.36	-454.16	460.4	438.82	-476.27	447.06	301.1	-509.87	242.62	429.04	-430.96	170.55	399.11	-496.83	170.98	415.44	-438.33	238.5	417.93	-478.93	84.714	396.4	-471.02	97.542	313.13	-538.7	72.1	339.97	-524	40.457	313.01	-535.17	41.269	376.42	-373.83	40.29	419.07	-340.94	34.376	312.63	-293.78	63.855	367.21	-792.05	579.66	162.23	-735.06	486.2	145.73	-808.72	491.35	178.65	-725.11	580.46	133.71	-776.52	414.27	152.81	-751.57	394.62	286.22	-954.15	362.82	169.54	-961.79	246.87	172.16	-1016.1	319.17	186.69	-926.68	306.76	158.76	-1082.8	218.12	193.19	-1073.4	210.26	276.35	-1130.2	260.31	232.98	-1146.3	247.12	271.16	-1158.6	244.75	210.05	-1114.8	85.489	185.86	-1081.8	80.796	291.15	-1049.4	35.344	246.23	-741	1359.9	337.22	-811.18	1106.8	323.96
179	0.74167	-542.28	1063.2	322.84	-658.85	1287.4	479.47	-647.05	1304.9	191.75	-621.7	1584.4	360.19	-549.37	895.92	416.01	-574.36	870.59	201.91	-777.06	923.77	382.17	-788.41	921.99	308.02	-591.24	797.72	513.87	-719.04	784.49	131.4	-647.71	943.95	483.54	-699.44	921.78	146.44	-805.15	872.37	344.48	-510.65	611.26	487.19	-436.98	561.82	436.75	-493.04	524.86	465.61	-459.25	646.6	457	-450.38	460.19	439.35	-471.82	447.25	301.52	-508.03	242.99	429.16	-429.78	170.15	399.29	-495.68	171.24	415.52	-436.5	238.15	418.2	-478.62	84.802	396.41	-470.72	97.7	313.22	-538.58	72.231	340.03	-523.93	40.586	313.05	-535.07	41.398	376.46	-373.7	40.198	419.05	-340.81	34.123	312.52	-293.54	63.379	367.12	-783.51	578.92	161.86	-725.55	486.07	145.23	-799.28	490.4	178.05	-716.5	580.46	133.51	-766.5	413.92	152	-741.12	393.91	285.46	-944.12	364.01	169.06	-953.48	248.56	171.74	-1006.6	320.91	186.32	-917.54	307.71	158.09	-1073.8	220.8	192.51	-1064.3	212.43	275.94	-1120.1	263.89	232.71	-1136.3	250.99	270.88	-1149	248.98	209.96	-1109	88.369	185.64	-1075.3	82.74	290.57	-1044.6	35.272	245.34	-735.21	1360.7	338.01	-805.4	1107.5	324.4
